<?xml version="1.0" encoding="UTF-8"?>
<svg id="Layer_1" data-name="Layer 1" xmlns="http://www.w3.org/2000/svg" viewBox="0 0 438.12 403.94">
  <defs>
    <style>
      .cls-1 {
        fill: none;
      }

      .cls-2 {
        fill: #ef8109;
      }

      .cls-3 {
        fill: #ffe50a;
      }

      .cls-4 {
        fill: #ffa80a;
      }

      .cls-5 {
        fill: #ff3417;
      }

      .cls-6 {
        fill: #6d0044;
      }

      .cls-7 {
        fill: #6d0074;
      }

      .cls-8 {
        fill: #95001a;
      }

      .cls-9 {
        fill: #d7001f;
      }

      .cls-10 {
        fill: #40004d;
      }

      .cls-11 {
        fill: #520033;
      }
    </style>
  </defs>
  <rect class="cls-1" width="438.12" height="403.94"/>
  <g>
    <polygon class="cls-8" points="314 240.39 222.68 195.06 219.04 197.32 216.27 194.63 124.09 240.39 120.45 246.26 122.67 251.43 210.86 295.2 219.04 295.2 227.23 295.2 315.41 251.43 317.64 246.26 314 240.39"/>
    <polygon class="cls-10" points="120.45 246.26 219.04 295.2 219.04 299.27 155.15 330.99 146.96 330.99 120.45 317.64 116.81 312.21 116.81 252.13 120.45 246.26"/>
    <polygon class="cls-11" points="317.64 246.26 219.08 295.2 219.08 299.27 282.98 330.99 291.16 330.99 317.68 317.64 321.32 312.21 321.32 252.13 317.64 246.26"/>
    <polygon class="cls-4" points="317.68 148.96 314.04 151.22 314.04 240.39 317.64 246.26 321.32 252.13 380.9 281.71 389.09 281.71 400.84 275.8 317.68 148.96"/>
    <polygon class="cls-5" points="120.45 148.96 124.09 151.22 124.09 240.39 120.45 246.26 116.81 252.13 57.22 281.71 49.04 281.71 37.29 275.8 120.45 148.96"/>
    <polygon class="cls-6" points="120.45 317.64 49.04 281.71 120.45 246.26 120.45 317.64"/>
    <polygon class="cls-7" points="219.04 367.26 291.12 330.99 219.04 295.2 146.96 330.99 219.04 367.26"/>
    <polygon class="cls-6" points="317.68 317.64 389.09 281.71 317.64 246.26 317.68 317.64"/>
    <polygon class="cls-4" points="219.06 36.69 194.06 36.69 120.45 148.96 124.09 151.22 219.04 104.08 219.04 100.01 222.68 97.48 222.7 39.87 219.06 36.69"/>
    <polygon class="cls-9" points="219.04 100.01 120.45 148.96 120.45 246.26 219.04 197.32 222.68 195.06 222.68 105.87 219.04 100.01"/>
    <polygon class="cls-3" points="219.06 36.69 244.07 36.69 317.68 148.96 314.04 151.22 222.68 105.87 219.04 100.01 219.06 36.69"/>
    <polygon class="cls-2" points="317.64 246.26 219.04 197.32 219.04 100.01 317.64 148.96 317.64 246.26"/>
  </g>
</svg>