<svg id="Layer_1" data-name="Layer 1" xmlns="http://www.w3.org/2000/svg" viewBox="0 0 1000 294"><defs><style>.cls-1{fill:#fff;}</style></defs><title>Agoric-illustrations-Artboard 2 copy 3</title><path class="cls-1" d="M381.37,241.09V50.51H190.79V241.09Zm-127-127h63.52v63.52H254.32Z"/><path class="cls-1" d="M63.74,114h63.53v63.52H63.74Z"/><path class="cls-1" d="M544.71,205.32H520.15L512,183h-49.3l-8.18,22.36H429.92l45.3-115.64H499.4Zm-75.2-41.25h35.6l-17.89-48.56Z"/><path class="cls-1" d="M634.33,202.16q0,17.93-10.66,28.91c-7.1,7.32-17.51,12.42-30.84,12.42-16.94,0-30-7.84-39.62-21.08l12.47-11.8C573.23,219.14,585,227.78,599,223c10.3-3.5,12.51-13.35,12.51-20.28v-6.48h-1c-.13.26-.35.64-.67,1.15a20.67,20.67,0,0,1-2.28,2.7,21.21,21.21,0,0,1-4.09,3.38,25,25,0,0,1-6.48,2.6,34.24,34.24,0,0,1-9.14,1.15,33.17,33.17,0,0,1-26.17-12q-10.38-11.94-10.38-30.64,0-19.08,10.57-30.64t26.75-11.56a36.06,36.06,0,0,1,10.47,1.44,24.64,24.64,0,0,1,7.61,3.57,36.26,36.26,0,0,1,4.86,4.24,19.79,19.79,0,0,1,2.76,3.47l.76,1.54h.76l3.62-12.34h14.84ZM607.4,147.89a17.55,17.55,0,0,0-14-6.36,16.6,16.6,0,0,0-13.52,6.64q-5.32,6.66-5.33,16.87t5.24,16.67a16.7,16.7,0,0,0,13.61,6.45,17.56,17.56,0,0,0,14.08-6.26q5.34-6.27,5.33-16.86Q612.82,154.24,607.4,147.89Z"/><path class="cls-1" d="M721,195.58q-12.09,11.67-29.6,11.66-17.7,0-29.79-11.66t-12.09-30.35q0-18.89,12.09-30.84t29.79-11.94q17.52,0,29.6,11.94t12.09,30.84Q733.1,183.92,721,195.58Zm-15.8-13.2q5.43-6.56,5.43-17.54,0-10.78-5.43-17.44a17,17,0,0,0-13.8-6.65,17.25,17.25,0,0,0-14,6.65Q672,154.06,672,164.84q0,11,5.33,17.54a18.12,18.12,0,0,0,27.89,0Z"/><path class="cls-1" d="M800.24,143.84H789.59q-8.19,0-13.23,5.3t-5.05,14.36v41.82H748.47V124.37h14.28L766,136.32h1.14q6.28-11.94,22.28-11.95h10.84Z"/><path class="cls-1" d="M815,108a12.51,12.51,0,0,1-3.81-9.44A12.82,12.82,0,0,1,815,89a13,13,0,0,1,9.51-3.76A13.32,13.32,0,0,1,834.08,89a12.66,12.66,0,0,1,3.9,9.54,12.37,12.37,0,0,1-3.9,9.44,13.53,13.53,0,0,1-9.62,3.66A13.17,13.17,0,0,1,815,108Zm-2.1,16.38H835.7v80.95H812.85Z"/><path class="cls-1" d="M862,195.29q-11.61-11.94-11.61-30.45T862,134.39q11.61-11.94,30.46-11.94a49.52,49.52,0,0,1,13.89,1.83q6.28,1.83,8.76,3.56l2.48,1.93-5.91,16.57a30.78,30.78,0,0,0-17.13-4.81,19.84,19.84,0,0,0-15.23,6.36q-5.89,6.35-5.9,17,0,10.8,5.9,17.06t15.23,6.26a30.49,30.49,0,0,0,8.66-1.25,33,33,0,0,0,6.38-2.41l2.09-1.15,5.72,16.38c-.64.51-1.56,1.19-2.77,2s-3.93,2-8.18,3.37a44,44,0,0,1-14,2.12Q873.58,207.24,862,195.29Z"/><path class="cls-1" d="M936.74,192.19a6.8,6.8,0,1,1-6.8,6.8,6.81,6.81,0,0,1,6.8-6.8m0-1.45A8.25,8.25,0,1,0,945,199a8.25,8.25,0,0,0-8.25-8.25Z"/><path class="cls-1" d="M931.46,196.72h4.17v1.1h-1.46V202h-1.25v-4.15h-1.46Z"/><path class="cls-1" d="M940,199.07l-1.11,1.51h-.53l-1.12-1.51V202H936v-5.25h1l1.61,2.25,1.61-2.25h1V202H940Z"/></svg>