<svg width="3195" height="648" viewBox="0 0 3195 648" fill="none" xmlns="http://www.w3.org/2000/svg">
<rect x="117.962" y="92.9004" width="413.206" height="405.051" fill="white"/>
<path d="M864.357 210.947H899.079L996.237 436.482H950.366L929.341 384.876H831.546L811.158 436.482H766.242L864.357 210.947ZM915.325 350.473L880.603 258.73L845.243 350.473H915.325Z" fill="#E84142"/>
<path d="M1039.29 210.947H1085.48L1146.96 381.372L1210.35 210.947H1253.68L1162.57 436.482H1127.85L1039.29 210.947Z" fill="#E84142"/>
<path d="M1397.12 210.947H1431.85L1529 436.482H1483.13L1462.11 384.876H1364.31L1343.92 436.482H1299.01L1397.12 210.947ZM1448.09 350.473L1413.37 258.73L1378.01 350.473H1448.09Z" fill="#E84142"/>
<path d="M1617.78 210.947H1657.92V400.167H1753.8V436.482H1617.78V210.947Z" fill="#E84142"/>
<path d="M1919.62 210.947H1954.35L2051.5 436.482H2005.63L1984.61 384.876H1886.81L1866.42 436.482H1821.51L1919.62 210.947ZM1970.59 350.473L1935.87 258.73L1900.51 350.473H1970.59Z" fill="#E84142"/>
<path d="M2140.28 210.947H2193.48L2302.74 378.505H2303.38V210.947H2343.51V436.482H2292.55L2181.05 263.508H2180.42V436.482H2140.28V210.947Z" fill="#E84142"/>
<path d="M2612.34 263.826C2604.06 254.907 2595.99 248.961 2588.13 245.987C2580.48 243.014 2572.73 241.528 2564.88 241.528C2553.2 241.528 2542.58 243.651 2533.02 247.899C2523.68 251.934 2515.61 257.668 2508.81 265.101C2502.01 272.321 2496.71 280.816 2492.88 290.585C2489.27 300.354 2487.47 310.866 2487.47 322.121C2487.47 334.226 2489.27 345.376 2492.88 355.569C2496.71 365.763 2502.01 374.576 2508.81 382.009C2515.61 389.442 2523.68 395.282 2533.02 399.53C2542.58 403.777 2553.2 405.901 2564.88 405.901C2574.01 405.901 2582.82 403.777 2591.32 399.53C2600.02 395.07 2608.09 388.062 2615.53 378.505L2648.65 402.078C2638.46 416.094 2626.04 426.288 2611.38 432.659C2596.73 439.03 2581.12 442.216 2564.56 442.216C2547.14 442.216 2531.11 439.455 2516.46 433.933C2502.01 428.199 2489.48 420.236 2478.87 410.042C2468.46 399.636 2460.28 387.212 2454.34 372.771C2448.39 358.33 2445.42 342.296 2445.42 324.67C2445.42 306.619 2448.39 290.266 2454.34 275.613C2460.28 260.747 2468.46 248.111 2478.87 237.705C2489.48 227.299 2502.01 219.335 2516.46 213.814C2531.11 208.08 2547.14 205.213 2564.56 205.213C2579.85 205.213 2593.97 207.974 2606.92 213.495C2620.09 218.804 2632.3 227.936 2643.56 240.891L2612.34 263.826Z" fill="#E84142"/>
<path d="M2739.31 210.947H2779.44V300.778H2884.88V210.947H2925.02V436.482H2884.88V337.093H2779.44V436.482H2739.31V210.947Z" fill="#E84142"/>
<path d="M3039.13 210.947H3188.53V247.262H3079.27V302.69H3182.8V339.005H3079.27V400.167H3194.27V436.482H3039.13V210.947Z" fill="#E84142"/>
<path fill-rule="evenodd" clip-rule="evenodd" d="M647.43 323.744C647.43 502.408 502.594 647.244 323.93 647.244C145.266 647.244 0.429688 502.408 0.429688 323.744C0.429688 145.08 145.266 0.244141 323.93 0.244141C502.594 0.244141 647.43 145.08 647.43 323.744ZM232.26 452.474H169.478C156.286 452.474 149.769 452.474 145.795 449.931C141.504 447.149 138.881 442.54 138.563 437.454C138.325 432.765 141.583 427.043 148.1 415.599L303.117 142.36C309.713 130.757 313.051 124.956 317.263 122.81C321.793 120.506 327.197 120.506 331.727 122.81C335.939 124.956 339.277 130.757 345.873 142.36L377.741 197.99L377.904 198.274C385.028 210.722 388.641 217.034 390.218 223.659C391.966 230.891 391.966 238.52 390.218 245.752C388.629 252.428 385.052 258.786 377.82 271.422L296.394 415.361L296.183 415.73C289.011 428.28 285.377 434.64 280.34 439.441C274.857 444.686 268.261 448.5 261.029 450.646C254.433 452.474 247.042 452.474 232.26 452.474ZM390.806 452.481H480.768C494.04 452.481 500.715 452.481 504.689 449.859C508.98 447.077 511.682 442.388 511.921 437.302C512.151 432.768 508.963 427.267 502.716 416.489C502.503 416.121 502.286 415.748 502.066 415.368L457.006 338.281L456.493 337.414C450.161 326.705 446.963 321.298 442.86 319.208C438.33 316.903 433.006 316.903 428.476 319.208C424.343 321.353 421.005 326.996 414.409 338.36L369.508 415.447L369.354 415.713C362.781 427.059 359.496 432.729 359.733 437.382C360.051 442.468 362.673 447.157 366.965 449.938C370.859 452.481 377.534 452.481 390.806 452.481Z" fill="#E84142"/>
</svg>
