<svg version="1.0" xmlns="http://www.w3.org/2000/svg"
 width="400.000000pt" height="400.000000pt" viewBox="0 0 400.000000 400.000000"
 preserveAspectRatio="xMidYMid meet">

<g transform="translate(0.000000,400.000000) scale(0.100000,-0.100000)"
fill="#000000" stroke="none">
<path d="M0 2000 l0 -2000 2000 0 2000 0 0 2000 0 2000 -2000 0 -2000 0 0
-2000z m2192 1485 c427 -56 815 -296 1051 -650 245 -369 317 -808 201 -1228
-74 -268 -187 -461 -389 -662 -235 -236 -492 -369 -825 -426 -106 -18 -374
-16 -486 5 -479 87 -870 381 -1092 821 -50 100 -95 234 -124 368 -31 148 -31
427 1 577 97 454 376 829 771 1034 133 69 215 100 345 132 187 45 358 54 547
29z"/>
<path d="M1795 3355 c-186 -31 -350 -91 -517 -192 -43 -26 -78 -53 -78 -61 0
-10 7 -12 23 -8 12 4 87 10 167 13 168 6 301 -6 471 -43 65 -15 128 -24 141
-21 15 4 39 32 67 78 24 40 73 102 108 139 34 37 63 72 63 78 0 16 -46 22
-205 27 -104 3 -178 0 -240 -10z"/>
<path d="M2373 3251 c-79 -36 -234 -222 -218 -262 3 -8 47 -32 98 -53 203 -85
528 -280 581 -349 14 -19 30 -58 36 -87 27 -140 13 -156 -175 -211 -170 -50
-342 -117 -537 -211 -84 -40 -153 -68 -162 -65 -17 7 -21 61 -9 106 12 46 443
233 698 303 l117 32 -33 29 c-66 54 -221 158 -327 217 -244 136 -541 238 -787
271 -135 17 -390 7 -485 -21 -175 -50 -285 -132 -347 -258 -38 -75 -38 -77
-38 -196 0 -102 4 -131 24 -186 66 -180 175 -342 343 -507 51 -50 105 -95 119
-98 21 -5 41 5 106 53 82 61 240 169 346 236 31 20 61 46 66 59 5 12 14 82 21
156 14 167 42 331 82 485 35 134 52 159 95 146 76 -22 75 -20 33 -169 -68
-243 -95 -489 -87 -801 5 -213 18 -337 52 -504 13 -61 13 -73 0 -92 -15 -24
-110 -64 -150 -64 -39 0 -296 135 -436 229 -248 167 -422 333 -560 534 -59 86
-149 262 -149 291 0 16 -18 31 -27 23 -11 -12 -33 -198 -33 -287 0 -186 49
-407 126 -570 59 -124 102 -190 124 -190 11 0 31 24 55 64 55 94 175 230 206
234 32 4 79 -33 79 -61 0 -13 -30 -56 -68 -100 -117 -134 -170 -245 -144 -302
21 -46 81 -65 208 -65 192 0 400 49 694 163 264 103 708 341 883 474 20 15 63
48 96 73 l59 45 7 105 c22 302 -24 689 -110 948 -114 340 -300 511 -472 433z"/>
<path d="M2929 2996 c-4 -4 13 -64 37 -134 23 -70 52 -172 63 -226 12 -61 27
-106 38 -117 25 -24 203 -39 203 -17 0 25 -76 171 -133 259 -59 89 -198 246
-208 235z"/>
<path d="M3114 2356 c-3 -8 21 -48 56 -93 33 -43 71 -91 83 -107 28 -36 42
-30 68 28 45 99 12 155 -104 175 -83 14 -97 14 -103 -3z"/>
<path d="M3090 2015 c0 -63 3 -115 7 -115 15 0 94 94 89 107 -12 30 -76 123
-86 123 -6 0 -10 -44 -10 -115z"/>
<path d="M3355 1987 c-4 -10 -5 -21 -1 -24 10 -10 18 4 13 24 -4 17 -4 17 -12
0z"/>
<path d="M1649 1791 c-74 -50 -162 -112 -197 -139 l-63 -50 48 -34 c107 -77
406 -240 417 -227 2 2 -7 65 -20 139 -13 74 -26 195 -30 268 -4 72 -10 132
-14 132 -4 0 -68 -40 -141 -89z"/>
<path d="M3149 1767 l-76 -72 -17 -110 c-9 -60 -27 -159 -41 -219 -13 -60 -22
-113 -19 -117 10 -17 36 -8 103 34 147 96 217 251 192 429 -13 95 -26 128 -48
128 -10 0 -52 -33 -94 -73z"/>
<path d="M2840 1523 c-90 -64 -294 -188 -423 -257 -59 -32 -105 -61 -102 -66
7 -11 55 -19 182 -30 137 -13 297 -3 324 19 29 24 116 382 93 381 -5 -1 -38
-22 -74 -47z"/>
<path d="M2080 1095 c-9 -11 -2 -33 41 -115 96 -184 211 -280 320 -267 66 8
124 43 187 112 57 63 133 182 126 199 -3 7 -52 12 -147 13 -148 1 -297 20
-428 53 -92 24 -84 23 -99 5z"/>
<path d="M2943 1073 c-14 -3 -27 -18 -37 -44 -19 -48 -19 -49 -3 -49 13 0 97
80 97 93 0 7 -19 7 -57 0z"/>
<path d="M1873 1020 c-113 -50 -408 -125 -540 -136 -113 -10 -95 -36 81 -120
167 -79 341 -121 536 -130 123 -6 231 4 237 22 2 6 -17 33 -42 60 -61 66 -104
132 -156 237 -27 54 -49 87 -59 86 -8 0 -34 -9 -57 -19z"/>
</g>
</svg>
