<svg width="1140" height="240" viewBox="0 0 1140 240" fill="none" xmlns="http://www.w3.org/2000/svg">
<path fill-rule="evenodd" clip-rule="evenodd" d="M392.222 154.512L380.839 142.984C376.516 147.018 372.145 150.214 367.724 152.568C363.307 154.92 358.023 156.096 351.875 156.096C347.072 156.096 342.629 155.161 338.546 153.287C334.464 151.413 330.933 148.845 327.955 145.577C324.976 142.311 322.673 138.493 321.038 134.123C319.404 129.753 318.59 125.068 318.59 120.076C318.59 115.08 319.404 110.42 321.038 106.096C322.673 101.775 324.976 98.0053 327.955 94.786C330.933 91.5686 334.464 89.0239 338.546 87.1498C342.629 85.2778 347.072 84.3407 351.875 84.3407C357.638 84.3407 362.778 85.4935 367.293 87.7992C371.809 90.1028 376.084 93.1297 380.116 96.8758L391.501 83.7653C389.1 81.4597 386.555 79.3465 383.864 77.4239C381.176 75.5032 378.246 73.845 375.075 72.453C371.904 71.0592 368.422 69.9803 364.627 69.2124C360.832 68.4425 356.629 68.0576 352.019 68.0576C344.334 68.0576 337.322 69.4282 330.982 72.1653C324.64 74.9025 319.165 78.6486 314.554 83.4037C309.942 88.1588 306.365 93.7051 303.818 100.046C301.271 106.386 300 113.159 300 120.363C300 127.663 301.297 134.483 303.89 140.824C306.484 147.162 310.063 152.661 314.626 157.321C319.189 161.979 324.591 165.653 330.836 168.344C337.081 171.034 343.903 172.378 351.298 172.378C356.007 172.378 360.305 171.969 364.196 171.153C368.086 170.336 371.665 169.137 374.931 167.553C378.197 165.966 381.248 164.092 384.082 161.932C386.915 159.771 389.629 157.296 392.222 154.512Z" fill="white"/>
<path fill-rule="evenodd" clip-rule="evenodd" d="M620.87 96.6186C620.87 93.2631 622.303 90.412 625.17 88.0651C628.036 85.7143 632.05 84.5409 637.208 84.5409C641.795 84.5409 646.333 85.4292 650.823 87.202C655.314 88.9747 659.852 91.5388 664.437 94.8924L673.896 81.5229C668.739 77.4013 663.221 74.2631 657.345 72.1082C651.467 69.9514 644.852 68.873 637.495 68.873C632.527 68.873 627.941 69.5674 623.761 70.9581C619.557 72.3468 615.976 74.3349 612.989 76.9223C610.003 79.5116 607.662 82.6013 605.943 86.1953C604.247 89.7893 603.387 93.7907 603.387 98.1993C603.387 102.895 604.127 106.873 605.608 110.132C607.089 113.39 609.263 116.169 612.082 118.47C614.899 120.77 618.41 122.686 622.566 124.221C626.746 125.755 631.501 127.142 636.874 128.389C641.557 129.539 645.353 130.641 648.292 131.694C651.206 132.749 653.499 133.876 655.194 135.072C656.865 136.271 658.014 137.588 658.634 139.025C659.255 140.464 659.564 142.092 659.564 143.913C659.564 147.844 657.965 150.959 654.765 153.258C651.563 155.56 647.24 156.708 641.795 156.708C635.49 156.708 629.851 155.581 624.884 153.33C619.915 151.078 614.996 147.844 610.121 143.626L599.518 156.278C605.537 161.74 612.082 165.789 619.151 168.425C626.222 171.061 633.626 172.378 641.364 172.378C646.619 172.378 651.445 171.707 655.84 170.367C660.21 169.023 663.984 167.058 667.09 164.47C670.218 161.883 672.655 158.722 674.422 154.984C676.166 151.247 677.05 146.981 677.05 142.189C677.05 137.972 676.357 134.306 674.971 131.191C673.585 128.076 671.531 125.347 668.857 122.997C666.181 120.65 662.79 118.66 658.729 117.031C654.67 115.403 649.987 113.918 644.732 112.575C639.931 111.425 635.99 110.322 632.862 109.268C629.757 108.215 627.32 107.065 625.528 105.818C623.761 104.573 622.544 103.231 621.873 101.793C621.206 100.354 620.87 98.6299 620.87 96.6186Z" fill="white"/>
<path fill-rule="evenodd" clip-rule="evenodd" d="M817.051 98.0422V169.933H834.562V69.6875H815.758L785.185 117.09L754.613 69.6875H735.811V169.933H753.321V98.3281L784.753 145.301H785.328L817.051 98.0422Z" fill="white"/>
<path fill-rule="evenodd" clip-rule="evenodd" d="M981.682 120.364C981.682 125.262 980.844 129.897 979.165 134.269C977.489 138.639 975.164 142.432 972.189 145.649C969.218 148.867 965.646 151.413 961.476 153.287C957.304 155.162 952.726 156.097 947.741 156.097C942.754 156.097 938.151 155.136 933.932 153.216C929.713 151.293 926.092 148.7 923.073 145.436C920.054 142.168 917.704 138.35 916.025 133.979C914.348 129.609 913.508 124.973 913.508 120.076C913.508 115.175 914.348 110.54 916.025 106.17C917.704 101.798 920.028 98.0054 923.001 94.7861C925.974 91.5687 929.547 89.024 933.717 87.1499C937.887 85.2778 942.466 84.3408 947.452 84.3408C952.439 84.3408 957.042 85.3012 961.26 87.2238C965.477 89.1445 969.098 91.7378 972.117 95.0038C975.139 98.2678 977.489 102.088 979.165 106.458C980.844 110.828 981.682 115.465 981.682 120.364ZM1000.24 120.076C1000.24 112.966 998.941 106.242 996.352 99.9007C993.766 93.5632 990.168 88.0383 985.567 83.3318C980.964 78.6234 975.451 74.9025 969.024 72.1653C962.601 69.4282 955.507 68.0576 947.741 68.0576C939.973 68.0576 932.878 69.4515 926.453 72.2373C920.028 75.023 914.467 78.7925 909.769 83.5476C905.069 88.3027 901.429 93.8509 898.838 100.19C896.249 106.53 894.955 113.254 894.955 120.363C894.955 127.471 896.249 134.193 898.838 140.535C901.429 146.876 905.022 152.399 909.625 157.105C914.226 161.812 919.741 165.535 926.166 168.272C932.589 171.009 939.684 172.378 947.452 172.378C955.218 172.378 962.314 170.984 968.737 168.2C975.164 165.414 980.724 161.645 985.423 156.888C990.121 152.135 993.766 146.586 996.352 140.247C998.941 133.907 1000.24 127.183 1000.24 120.076Z" fill="white"/>
<path fill-rule="evenodd" clip-rule="evenodd" d="M1073.82 96.6186C1073.82 93.2631 1075.25 90.412 1078.12 88.0651C1080.99 85.7143 1085 84.5409 1090.16 84.5409C1094.74 84.5409 1099.28 85.4292 1103.77 87.202C1108.26 88.9747 1112.8 91.5388 1117.39 94.8924L1126.85 81.5229C1121.69 77.4013 1116.17 74.2631 1110.29 72.1082C1104.42 69.9514 1097.8 68.873 1090.45 68.873C1085.48 68.873 1080.89 69.5674 1076.71 70.9581C1072.51 72.3468 1068.93 74.3349 1065.94 76.9223C1062.95 79.5116 1060.61 82.6013 1058.89 86.1953C1057.2 89.7893 1056.34 93.7907 1056.34 98.1993C1056.34 102.895 1057.08 106.873 1058.56 110.132C1060.04 113.39 1062.21 116.169 1065.03 118.47C1067.85 120.77 1071.36 122.686 1075.52 124.221C1079.7 125.755 1084.45 127.142 1089.83 128.389C1094.51 129.539 1098.3 130.641 1101.24 131.694C1104.15 132.749 1106.45 133.876 1108.15 135.072C1109.82 136.271 1110.96 137.588 1111.59 139.025C1112.21 140.464 1112.52 142.092 1112.52 143.913C1112.52 147.844 1110.91 150.959 1107.72 153.258C1104.51 155.56 1100.19 156.708 1094.74 156.708C1088.44 156.708 1082.8 155.581 1077.84 153.33C1072.87 151.078 1067.95 147.844 1063.07 143.626L1052.47 156.278C1058.49 161.74 1065.03 165.789 1072.1 168.425C1079.17 171.061 1086.57 172.378 1094.31 172.378C1099.57 172.378 1104.39 171.707 1108.79 170.367C1113.16 169.023 1116.94 167.058 1120.04 164.47C1123.17 161.883 1125.61 158.722 1127.37 154.984C1129.12 151.247 1130 146.981 1130 142.189C1130 137.972 1129.31 134.306 1127.92 131.191C1126.54 128.076 1124.48 125.347 1121.81 122.997C1119.13 120.65 1115.74 118.66 1111.68 117.031C1107.62 115.403 1102.94 113.918 1097.68 112.575C1092.88 111.425 1088.94 110.322 1085.81 109.268C1082.71 108.215 1080.27 107.065 1078.48 105.818C1076.71 104.573 1075.49 103.231 1074.82 101.793C1074.16 100.354 1073.82 98.6299 1073.82 96.6186Z" fill="white"/>
<path fill-rule="evenodd" clip-rule="evenodd" d="M512.342 89.7558L464.362 137.671C463.744 136.472 463.185 135.223 462.685 133.927C461.009 129.574 460.172 124.955 460.172 120.076C460.172 115.194 461.009 110.577 462.685 106.223C464.362 101.868 466.686 98.0893 469.657 94.8821C472.628 91.6769 476.198 89.1418 480.366 87.2749C484.536 85.4099 489.111 84.4764 494.093 84.4764C499.077 84.4764 503.677 85.4331 507.891 87.3485C509.458 88.0592 510.942 88.861 512.342 89.7558ZM508.108 153.163C503.939 155.03 499.364 155.961 494.382 155.961C489.398 155.961 484.797 155.004 480.581 153.091C479.016 152.378 477.533 151.576 476.134 150.68L524.112 102.768C524.731 103.965 525.289 105.212 525.789 106.51C527.465 110.864 528.303 115.483 528.303 120.363C528.303 125.243 527.465 129.86 525.789 134.216C524.112 138.57 521.789 142.348 518.818 145.553C515.846 148.759 512.278 151.296 508.108 153.163ZM515.367 168.019C521.789 165.244 527.347 161.488 532.042 156.749C536.737 152.014 540.377 146.487 542.964 140.171C545.553 133.856 546.847 127.157 546.847 120.076C546.847 112.994 545.553 106.295 542.964 99.9776C541.43 96.232 539.541 92.7731 537.3 89.5989L568.506 58.4358L556.105 46.0527L524.804 77.3107C521.994 75.3973 518.944 73.7433 515.654 72.347C509.233 69.6202 502.143 68.2548 494.382 68.2548C486.618 68.2548 479.528 69.6434 473.107 72.4187C466.686 75.1939 461.128 78.9491 456.432 83.6862C451.737 88.4234 448.095 93.9506 445.508 100.266C442.921 106.582 441.627 113.281 441.627 120.363C441.627 127.444 442.921 134.141 445.508 140.458C447.044 144.205 448.933 147.664 451.175 150.841L419.971 182L432.371 194.383L463.67 163.127C466.48 165.04 469.531 166.694 472.82 168.09C479.241 170.817 486.331 172.181 494.093 172.181C501.856 172.181 508.946 170.792 515.367 168.019Z" fill="white"/>
<path fill-rule="evenodd" clip-rule="evenodd" d="M120 0.2304C186.147 0.2304 239.77 53.8531 239.77 120C239.77 186.147 186.147 239.77 120 239.77C53.8531 239.77 0.2304 186.147 0.2304 120C0.2304 53.8531 53.8531 0.2304 120 0.2304Z" fill="#171717"/>
<path fill-rule="evenodd" clip-rule="evenodd" d="M119.77 50.9023C157.931 50.9023 188.868 81.8385 188.868 120C188.868 158.162 157.931 189.098 119.77 189.098C81.6081 189.098 50.6719 158.162 50.6719 120C50.6719 81.8385 81.6081 50.9023 119.77 50.9023Z" fill="black"/>
<path opacity="0.67" fill-rule="evenodd" clip-rule="evenodd" d="M121.881 20.7164C120.929 19.8408 120.438 19.8242 120.356 19.8242C120.273 19.8242 119.782 19.8408 118.831 20.7164C117.854 21.6151 116.687 23.1659 115.429 25.5586C112.918 30.3345 110.515 37.5532 108.444 46.8679C106.115 57.3425 104.274 70.1455 103.113 84.4774C108.721 87.1908 114.488 90.1407 120.354 93.3083C126.221 90.1402 131.989 87.1898 137.598 84.476C136.437 70.1447 134.596 57.3422 132.267 46.8679C130.196 37.5532 127.793 30.3345 125.282 25.5586C124.025 23.1659 122.857 21.6151 121.881 20.7164ZM115.446 95.9968C111.138 93.7077 106.894 91.5423 102.738 89.508C102.423 94.1219 102.178 98.8778 102.007 103.751C104.205 102.435 106.435 101.123 108.695 99.8194C110.955 98.5154 113.207 97.2409 115.446 95.9968ZM98.5889 82.3232C101.954 43.0229 110.431 15.1367 120.356 15.1367C130.28 15.1367 138.756 43.0223 142.122 82.3219C177.86 65.5856 206.262 58.9794 211.225 67.569C216.187 76.1587 196.261 97.4376 163.888 120C196.261 142.563 216.187 163.841 211.225 172.431C206.262 181.021 177.86 174.415 142.122 157.678C138.756 196.978 130.28 224.863 120.356 224.863C110.431 224.863 101.954 196.977 98.5889 157.677C62.8496 174.414 34.4459 181.021 29.4834 172.431C24.5211 163.841 44.4474 142.563 76.8201 120C44.4474 97.4376 24.5211 76.1587 29.4834 67.569C34.4459 58.9792 62.8496 65.5859 98.5889 82.3232ZM80.9507 117.16C69.1108 108.989 58.9354 100.994 51.0224 93.7403C43.986 87.2902 38.9319 81.6009 36.0486 77.0398C34.604 74.7547 33.8441 72.9691 33.5537 71.675C33.2709 70.4148 33.5021 69.9834 33.5422 69.9139L33.5422 69.9138C33.5827 69.8438 33.842 69.4271 35.077 69.0413C36.3448 68.6452 38.2731 68.4101 40.976 68.5178C46.3708 68.7328 53.8286 70.2625 62.9363 73.1273C73.1781 76.3488 85.1931 81.1575 98.1933 87.3185C97.7409 93.528 97.4139 99.993 97.2257 106.653C91.547 110.147 86.1067 113.663 80.9507 117.16ZM80.9507 122.84C69.1108 131.011 58.9354 139.006 51.0224 146.26C43.986 152.71 38.9319 158.399 36.0486 162.96C34.604 165.245 33.8441 167.031 33.5537 168.325C33.2709 169.585 33.5021 170.017 33.5422 170.086C33.5825 170.156 33.8416 170.573 35.077 170.959C36.3448 171.355 38.2731 171.59 40.976 171.482C46.3708 171.267 53.8286 169.738 62.9363 166.873C73.1781 163.651 85.1931 158.843 98.1933 152.682C97.7409 146.472 97.4139 140.007 97.2257 133.347C91.547 129.853 86.1067 126.337 80.9507 122.84ZM97.1014 127.755C92.963 125.171 88.9637 122.58 85.1222 120C88.9637 117.42 92.963 114.829 97.1014 112.245C97.0598 114.806 97.0386 117.392 97.0386 120C97.0386 122.608 97.0598 125.195 97.1014 127.755ZM101.847 130.678C101.767 127.17 101.726 123.608 101.726 120C101.726 116.393 101.767 112.83 101.847 109.322C104.847 107.499 107.913 105.683 111.038 103.879C114.165 102.075 117.273 100.329 120.354 98.6435C123.435 100.329 126.543 102.075 129.67 103.879C132.797 105.683 135.864 107.5 138.864 109.324C138.944 112.831 138.985 116.393 138.985 120C138.985 123.607 138.944 127.169 138.864 130.676C135.864 132.5 132.797 134.317 129.67 136.121C126.543 137.925 123.435 139.671 120.354 141.357C117.273 139.671 114.165 137.925 111.038 136.121C107.913 134.317 104.847 132.501 101.847 130.678ZM102.007 136.249C102.178 141.122 102.423 145.878 102.738 150.492C106.894 148.458 111.138 146.292 115.446 144.003C113.207 142.759 110.955 141.485 108.695 140.181C106.435 138.877 104.205 137.565 102.007 136.249ZM120.354 146.692C114.488 149.859 108.721 152.809 103.113 155.523C104.274 169.855 106.115 182.658 108.444 193.132C110.515 202.447 112.918 209.666 115.429 214.442C116.687 216.834 117.854 218.385 118.831 219.284C119.782 220.159 120.273 220.176 120.356 220.176C120.438 220.176 120.929 220.159 121.881 219.284C122.857 218.385 124.025 216.834 125.282 214.442C127.793 209.666 130.196 202.447 132.267 193.132C134.596 182.658 136.437 169.855 137.598 155.524C131.989 152.81 126.221 149.86 120.354 146.692ZM142.518 152.683C155.517 158.843 167.531 163.652 177.772 166.873C186.88 169.738 194.337 171.267 199.732 171.482C202.435 171.59 204.363 171.355 205.631 170.959C206.867 170.573 207.126 170.156 207.166 170.086C207.206 170.017 207.437 169.586 207.154 168.325C206.864 167.031 206.104 165.245 204.66 162.96C201.776 158.399 196.722 152.71 189.686 146.26C181.773 139.006 171.597 131.011 159.757 122.84C154.602 126.336 149.163 129.852 143.485 133.345C143.297 140.006 142.97 146.473 142.518 152.683ZM159.757 117.16C171.597 108.989 181.773 100.994 189.686 93.7403C196.722 87.2902 201.776 81.6009 204.66 77.0398C206.104 74.7547 206.864 72.9691 207.154 71.675C207.437 70.4144 207.206 69.9831 207.166 69.9138C207.126 69.8441 206.867 69.4273 205.631 69.0413C204.363 68.6452 202.435 68.4101 199.732 68.5178C194.337 68.7328 186.88 70.2625 177.772 73.1273C167.531 76.3486 155.517 81.1568 142.518 87.3171C142.97 93.5276 143.297 99.9937 143.485 106.655C149.163 110.148 154.602 113.664 159.757 117.16ZM143.61 112.247C147.747 114.83 151.745 117.421 155.586 120C151.745 122.579 147.747 125.17 143.61 127.753C143.651 125.193 143.672 122.608 143.672 120C143.672 117.392 143.651 114.807 143.61 112.247ZM138.704 103.753C138.534 98.8784 138.288 94.1215 137.973 89.5065C133.816 91.5413 129.571 93.7072 125.262 95.9968C127.502 97.2409 129.753 98.5154 132.013 99.8194C134.274 101.124 136.505 102.436 138.704 103.753ZM137.973 150.494C133.816 148.459 129.571 146.293 125.262 144.003C127.502 142.759 129.753 141.485 132.013 140.181C134.274 138.876 136.505 137.564 138.704 136.247C138.534 141.122 138.288 145.879 137.973 150.494Z" fill="white"/>
<path fill-rule="evenodd" clip-rule="evenodd" d="M53.3322 90.6336C57.4048 90.6336 60.7062 93.9367 60.7062 98.0112C60.7062 102.086 57.4048 105.389 53.3322 105.389C49.2596 105.389 45.9582 102.086 45.9582 98.0112C45.9582 93.9367 49.2596 90.6336 53.3322 90.6336Z" fill="white"/>
<path fill-rule="evenodd" clip-rule="evenodd" d="M170.527 65.3696C174.602 65.3696 177.905 68.6727 177.905 72.7473C177.905 76.8218 174.602 80.1249 170.527 80.1249C166.452 80.1249 163.149 76.8218 163.149 72.7473C163.149 68.6727 166.452 65.3696 170.527 65.3696Z" fill="white"/>
<path fill-rule="evenodd" clip-rule="evenodd" d="M105.497 181.166C109.571 181.166 112.874 184.467 112.874 188.54C112.874 192.612 109.571 195.914 105.497 195.914C101.422 195.914 98.119 192.612 98.119 188.54C98.119 184.467 101.422 181.166 105.497 181.166Z" fill="white"/>
<path fill-rule="evenodd" clip-rule="evenodd" d="M119.945 107.455C126.844 107.455 132.436 113.047 132.436 119.945C132.436 126.844 126.844 132.436 119.945 132.436C113.047 132.436 107.455 126.844 107.455 119.945C107.455 113.047 113.047 107.455 119.945 107.455Z" fill="white"/>
</svg>
