<svg width="627" height="257" viewBox="0 0 627 257" fill="none" xmlns="http://www.w3.org/2000/svg">
<path d="M349.168 106.857L329.84 82.1718H322.383L345.331 54.0123H357.13L336.427 79.3486L336.137 74.2814L361.691 106.857H349.168ZM314.927 106.857V54.0123H325.207V106.857H314.927Z" fill="white"/>
<path d="M383.112 108.232C379.637 108.232 376.573 107.677 373.918 106.567C371.264 105.457 369.02 103.961 367.186 102.079C365.352 100.148 363.953 97.9768 362.988 95.5638C362.071 93.1508 361.612 90.6414 361.612 88.0353V86.5152C361.612 83.8126 362.095 81.2549 363.06 78.8419C364.073 76.3807 365.497 74.209 367.331 72.3269C369.213 70.3965 371.481 68.9004 374.136 67.8387C376.79 66.7287 379.782 66.1738 383.112 66.1738C386.442 66.1738 389.434 66.7287 392.088 67.8387C394.742 68.9004 396.987 70.3965 398.82 72.3269C400.703 74.209 402.126 76.3807 403.091 78.8419C404.057 81.2549 404.539 83.8126 404.539 86.5152V88.0353C404.539 90.6414 404.057 93.1508 403.091 95.5638C402.174 97.9768 400.799 100.148 398.965 102.079C397.131 103.961 394.887 105.457 392.233 106.567C389.579 107.677 386.538 108.232 383.112 108.232ZM383.112 99.6176C385.573 99.6176 387.648 99.0868 389.337 98.0251C391.026 96.9151 392.305 95.4432 393.174 93.6093C394.043 91.7272 394.477 89.6038 394.477 87.2391C394.477 84.8261 394.019 82.7027 393.102 80.8688C392.233 78.9867 390.93 77.5148 389.193 76.453C387.504 75.3431 385.477 74.7881 383.112 74.7881C380.747 74.7881 378.696 75.3431 376.959 76.453C375.27 77.5148 373.967 78.9867 373.05 80.8688C372.133 82.7027 371.674 84.8261 371.674 87.2391C371.674 89.6038 372.109 91.7272 372.977 93.6093C373.894 95.4432 375.197 96.9151 376.886 98.0251C378.575 99.0868 380.651 99.6176 383.112 99.6176Z" fill="white"/>
<path d="M413.784 106.857V67.5492H423.846V106.857H413.784ZM408.282 75.0776V67.5492H423.846V75.0776H408.282ZM417.476 62.8438C415.497 62.8438 414.025 62.3371 413.06 61.3237C412.143 60.262 411.685 58.959 411.685 57.4146C411.685 55.7738 412.143 54.4467 413.06 53.4332C414.025 52.4198 415.497 51.9131 417.476 51.9131C419.455 51.9131 420.902 52.4198 421.819 53.4332C422.736 54.4467 423.195 55.7738 423.195 57.4146C423.195 58.959 422.736 60.262 421.819 61.3237C420.902 62.3371 419.455 62.8438 417.476 62.8438Z" fill="white"/>
<path d="M435.877 106.857V67.5492H445.939V106.857H435.877ZM430.375 75.0776V67.5492H445.939V75.0776H430.375ZM439.569 62.8438C437.59 62.8438 436.118 62.3371 435.153 61.3237C434.236 60.262 433.778 58.959 433.778 57.4146C433.778 55.7738 434.236 54.4467 435.153 53.4332C436.118 52.4198 437.59 51.9131 439.569 51.9131C441.547 51.9131 442.995 52.4198 443.912 53.4332C444.829 54.4467 445.288 55.7738 445.288 57.4146C445.288 58.959 444.829 60.262 443.912 61.3237C442.995 62.3371 441.547 62.8438 439.569 62.8438Z" fill="white"/>
<path d="M314.927 196.457V143.612H331.794L354.018 187.915H356.406L354.959 189.218V143.612H364.659V196.457H347.72L325.496 152.154H323.035L324.483 150.851V196.457H314.927Z" fill="white"/>
<path d="M393.049 197.832C389.671 197.832 386.703 197.253 384.145 196.095C381.636 194.936 379.536 193.392 377.847 191.462C376.206 189.483 374.952 187.287 374.083 184.874C373.263 182.461 372.852 180 372.852 177.491V176.115C372.852 173.509 373.263 171 374.083 168.587C374.952 166.125 376.206 163.954 377.847 162.072C379.536 160.141 381.612 158.621 384.073 157.511C386.534 156.353 389.381 155.774 392.615 155.774C396.862 155.774 400.409 156.715 403.256 158.597C406.151 160.431 408.323 162.868 409.771 165.908C411.219 168.9 411.943 172.134 411.943 175.608V179.228H377.123V173.075H405.645L402.532 176.115C402.532 173.606 402.17 171.458 401.446 169.673C400.722 167.887 399.612 166.512 398.116 165.546C396.668 164.581 394.835 164.099 392.615 164.099C390.395 164.099 388.513 164.605 386.968 165.619C385.424 166.632 384.242 168.104 383.421 170.034C382.649 171.917 382.263 174.185 382.263 176.839C382.263 179.3 382.649 181.496 383.421 183.426C384.193 185.309 385.376 186.805 386.968 187.915C388.561 188.976 390.588 189.507 393.049 189.507C395.51 189.507 397.513 189.025 399.057 188.059C400.602 187.046 401.591 185.815 402.025 184.368H411.291C410.712 187.07 409.602 189.435 407.961 191.462C406.32 193.489 404.221 195.057 401.663 196.167C399.154 197.277 396.282 197.832 393.049 197.832Z" fill="white"/>
<path d="M435.984 196.963C432.365 196.963 429.373 196.505 427.008 195.588C424.692 194.623 422.954 193.03 421.796 190.81C420.638 188.542 420.059 185.502 420.059 181.689L420.131 146.074H429.542L429.469 182.341C429.469 184.271 429.976 185.767 430.99 186.829C432.051 187.842 433.547 188.349 435.478 188.349H441.631V196.963H435.984ZM413.833 164.533V157.149H441.631V164.533H413.833Z" fill="white"/>
<path d="M462.093 196.457L469.549 158.452H481.131L489.745 196.457H481.783L473.023 158.669H477.222L469.476 196.457H462.093ZM459.125 196.457L459.052 188.204H467.087V196.457H459.125ZM455.071 196.457L444.357 157.149H454.13L464.337 196.457H455.071ZM484.316 196.457V188.204H492.351L492.279 196.457H484.316ZM487.501 196.457L496.55 157.149H505.671L496.188 196.457H487.501Z" fill="white"/>
<path d="M530.192 197.832C526.718 197.832 523.653 197.277 520.999 196.167C518.345 195.057 516.101 193.561 514.267 191.679C512.433 189.748 511.033 187.577 510.068 185.164C509.151 182.751 508.693 180.241 508.693 177.635V176.115C508.693 173.413 509.175 170.855 510.14 168.442C511.154 165.981 512.578 163.809 514.411 161.927C516.294 159.996 518.562 158.5 521.216 157.439C523.87 156.329 526.862 155.774 530.192 155.774C533.522 155.774 536.514 156.329 539.169 157.439C541.823 158.5 544.067 159.996 545.901 161.927C547.783 163.809 549.207 165.981 550.172 168.442C551.137 170.855 551.62 173.413 551.62 176.115V177.635C551.62 180.241 551.137 182.751 550.172 185.164C549.255 187.577 547.879 189.748 546.046 191.679C544.212 193.561 541.968 195.057 539.313 196.167C536.659 197.277 533.619 197.832 530.192 197.832ZM530.192 189.218C532.654 189.218 534.729 188.687 536.418 187.625C538.107 186.515 539.386 185.043 540.254 183.209C541.123 181.327 541.557 179.204 541.557 176.839C541.557 174.426 541.099 172.303 540.182 170.469C539.313 168.587 538.01 167.115 536.273 166.053C534.584 164.943 532.557 164.388 530.192 164.388C527.828 164.388 525.777 164.943 524.039 166.053C522.35 167.115 521.047 168.587 520.13 170.469C519.213 172.303 518.755 174.426 518.755 176.839C518.755 179.204 519.189 181.327 520.058 183.209C520.975 185.043 522.278 186.515 523.967 187.625C525.656 188.687 527.731 189.218 530.192 189.218Z" fill="white"/>
<path d="M558.982 196.457V157.149H566.945V173.799H566.728C566.728 168.152 567.934 163.881 570.347 160.986C572.76 158.09 576.308 156.642 580.989 156.642H582.436V165.402H579.686C576.308 165.402 573.677 166.318 571.795 168.152C569.961 169.938 569.044 172.544 569.044 175.97V196.457H558.982Z" fill="white"/>
<path d="M615.228 196.457L602.053 178.07H596.19L612.912 157.149H623.408L607.989 176.477L608.207 171.41L626.593 196.457H615.228ZM587.72 196.457V143.612H597.782V196.457H587.72Z" fill="white"/>
<path fill-rule="evenodd" clip-rule="evenodd" d="M256.356 128.649C256.356 199.341 199.049 256.649 128.356 256.649C57.6636 256.649 0.356079 199.341 0.356079 128.649C0.356079 57.9563 57.6636 0.648712 128.356 0.648712C199.049 0.648712 256.356 57.9563 256.356 128.649ZM163.264 133.24C163.264 127.762 167.647 123.38 173.125 123.38C178.603 123.38 182.986 127.762 182.986 133.24C182.986 138.717 178.603 143.1 173.125 143.1C167.647 143.1 163.264 138.535 163.264 133.24ZM222.795 157.161C226.812 115.713 191.204 64.0407 145.735 71.1617C142.652 69.221 139.641 67.209 136.657 65.2148C134.868 64.0194 133.088 62.8304 131.309 61.6671C131.049 61.4854 130.779 61.289 130.499 61.0858C128.808 59.8587 126.771 58.3805 124.735 58.3805C120.535 58.1979 116.518 63.3104 119.074 67.3273C113.596 64.5885 107.935 71.7094 112.135 76.4567C108.483 74.6309 105.013 78.4652 105.379 81.9344C105.537 84.6322 107.765 87.1921 109.664 89.3743C109.95 89.7028 110.229 90.0228 110.492 90.3334C101.179 100.011 94.4222 111.879 88.7614 123.93C84.594 132.859 80.9119 141.909 77.2206 150.982C76.383 153.041 75.5449 155.101 74.7006 157.161C74.3593 157.98 73.9782 158.989 73.5525 160.116C70.5622 168.036 65.3688 181.789 56.2573 176.515C48.2226 171.768 44.0227 158.987 42.927 150.405C42.3792 145.658 42.1966 139.084 45.8488 135.433C53.3826 128.071 73.1183 136.441 76.0011 137.664C76.1928 137.745 76.31 137.795 76.3441 137.806C67.0312 131.598 39.6401 114.252 34.5271 133.789C32.1532 143.101 34.7097 154.604 38.3619 163.186C41.6488 171.22 46.3966 179.436 53.8835 184.184C68.1539 193.024 75.4411 175.384 80.4458 163.269C81.3328 161.121 82.1481 159.148 82.9179 157.526C90.4048 141.458 98.6221 125.208 110.492 112.061C118.709 102.932 129.483 95.6285 141.352 93.62C146.465 92.7071 151.943 92.7071 157.422 94.1678C172.395 98.0021 185.543 109.688 193.578 122.651C201.247 135.067 206.36 151.5 204.169 166.107C203.256 172.863 200.882 180.349 194.673 184.001C187.917 188.201 178.604 187.288 171.3 185.644C162.535 183.636 154.135 179.984 145.735 176.332C137.7 172.863 104.831 156.065 96.6135 150.953C97.9596 151.958 99.3042 152.965 100.648 153.971C113.71 163.752 126.748 173.515 140.987 181.627C140.861 181.774 140.731 181.925 140.597 182.08C139.564 183.28 138.326 184.716 137.517 186.01C136.057 188.201 138.248 191.852 140.804 189.844C139.891 192.218 140.804 195.139 143.909 194.591C142.448 197.33 145.735 200.069 148.291 198.426L159.43 190.574C172.943 195.869 189.013 198.426 202.525 191.487C212.386 186.192 218.412 176.698 221.151 166.29C222.064 163.369 222.43 160.265 222.795 157.161Z" fill="white"/>
</svg>
