<?xml version="1.0" encoding="UTF-8"?>
<svg id="Layer_1" data-name="Layer 1" xmlns="http://www.w3.org/2000/svg" viewBox="0 0 757.62 274.21">
  <defs>
    <style>
      .cls-1 {
        fill: none;
      }

      .cls-2 {
        fill: #ef8109;
      }

      .cls-3 {
        fill: #ffe50a;
      }

      .cls-4 {
        fill: #fff;
      }

      .cls-5 {
        fill: #ffa80a;
      }

      .cls-6 {
        fill: #ff3417;
      }

      .cls-7 {
        fill: #6d0044;
      }

      .cls-8 {
        fill: #6d0074;
      }

      .cls-9 {
        fill: #95001a;
      }

      .cls-10 {
        fill: #d7001f;
      }

      .cls-11 {
        fill: #40004d;
      }

      .cls-12 {
        fill: #520033;
      }
    </style>
  </defs>
  <rect class="cls-1" y="0" width="757.62" height="274.21"/>
  <g>
    <g>
      <polygon class="cls-9" points="201.16 157 149.69 131.45 147.64 132.72 146.08 131.21 94.12 157 92.07 160.31 93.32 163.22 143.03 187.89 147.64 187.89 152.25 187.89 201.95 163.22 203.21 160.31 201.16 157"/>
      <polygon class="cls-11" points="92.07 160.31 147.64 187.89 147.64 190.18 111.63 208.06 107.01 208.06 92.07 200.54 90.02 197.48 90.02 163.61 92.07 160.31"/>
      <polygon class="cls-12" points="203.21 160.31 147.66 187.89 147.66 190.18 183.67 208.06 188.29 208.06 203.23 200.54 205.28 197.48 205.28 163.61 203.21 160.31"/>
      <polygon class="cls-5" points="203.23 105.46 201.18 106.74 201.18 157 203.21 160.31 205.28 163.61 238.87 180.28 243.48 180.28 250.1 176.95 203.23 105.46"/>
      <polygon class="cls-6" points="92.07 105.46 94.12 106.74 94.12 157 92.07 160.31 90.02 163.61 56.43 180.28 51.82 180.28 45.2 176.95 92.07 105.46"/>
      <polygon class="cls-7" points="92.07 200.54 51.82 180.28 92.07 160.31 92.07 200.54"/>
      <polygon class="cls-8" points="147.64 228.5 188.26 208.06 147.64 187.89 107.01 208.06 147.64 228.5"/>
      <polygon class="cls-7" points="203.23 200.54 243.48 180.28 203.21 160.31 203.23 200.54"/>
      <polygon class="cls-5" points="147.65 42.19 133.56 42.19 92.07 105.46 94.12 106.74 147.64 80.17 147.64 77.88 149.69 76.45 149.7 43.98 147.65 42.19"/>
      <polygon class="cls-10" points="147.64 77.88 92.07 105.46 92.07 160.31 147.64 132.72 149.69 131.45 149.69 81.18 147.64 77.88"/>
      <polygon class="cls-3" points="147.65 42.19 161.74 42.19 203.23 105.46 201.18 106.74 149.69 81.18 147.64 77.88 147.65 42.19"/>
      <polygon class="cls-2" points="203.21 160.31 147.64 132.72 147.64 77.88 203.21 105.46 203.21 160.31"/>
    </g>
    <path class="cls-4" d="M591.01,97.01l-42.25,98.1h-19.06l-42.25-98.1h24l27.88,66.18,27.69-66.18h23.99Zm-258.43,63.48V60.47h-23.22v103.09c0,20.04,10.8,31.54,30.77,31.54h24.22v-21.09h-20.95c-6.4,0-10.82-4.13-10.82-13.52Zm154.87,16.64v18.33c-3.17,1.4-7.23,2.13-11.03,2.13-12.33,0-19.8-7.6-21.67-16.72l.06-.22c-6.09,12.07-20.26,16.94-33.35,16.94-28.8,0-48.96-22.68-48.96-50.9s21.13-51.81,48.96-51.81c14.51,0,24.83,5.89,31.17,17.21v-.03s0-15.05,0-15.05h23.22v69.04c0,4.13,.55,7.06,1.65,8.8,1.1,1.74,2.94,2.61,5.52,2.61,1.32,0,2.8-.11,4.45-.33Zm-32.7-31.36c0-17.47-13.68-29.8-30.19-29.8-19.82,0-28.83,16.18-28.83,30.72,0,16.11,12.32,28.88,28.83,28.88s30.19-12.34,30.19-29.8Zm251.2,31.36v18.33c-3.17,1.4-7.23,2.13-11.03,2.13-12.33,0-19.8-7.6-21.67-16.72l.06-.22c-6.09,12.07-20.26,16.94-33.35,16.94-28.8,0-48.96-22.68-48.96-50.9s21.13-51.81,48.96-51.81c14.51,0,24.83,5.89,31.17,17.21v-.03s0-15.05,0-15.05h23.22v69.04c0,4.13,.55,7.06,1.65,8.8,1.1,1.74,2.94,2.61,5.52,2.61,1.32,0,2.8-.11,4.45-.33Zm-32.7-31.36c0-17.47-13.68-29.8-30.19-29.8-19.82,0-28.83,16.18-28.83,30.72,0,16.11,12.32,28.88,28.83,28.88s30.19-12.34,30.19-29.8Z"/>
  </g>
</svg>