<svg xmlns="http://www.w3.org/2000/svg" width="1000" height="284" viewBox="0 0 1000 284" fill="none"><path d="M439.909 111.552L446.484 98.402C436.841 92.0461 423.472 87.8819 409.664 87.8819C388.624 87.8819 369.556 97.3062 369.556 119.223C369.337 159.988 433.992 145.742 433.334 173.796C433.115 185.412 422.157 190.672 408.568 190.672C394.98 190.672 380.076 185.193 370.214 175.988L363.639 188.48C374.597 199 391.473 204.699 407.911 204.699C430.047 204.699 450.21 194.617 450.21 172.043C450.21 130.62 385.775 143.989 385.775 117.908C385.775 106.95 395.637 102.347 408.568 102.347C419.308 102.347 430.923 105.854 439.909 111.552Z" fill="white"></path><path d="M523.878 88.1011C490.346 88.3203 466.675 111.99 466.675 146.4C466.675 180.809 490.126 204.699 524.098 204.699C543.384 204.699 559.603 197.685 570.561 185.631L561.137 175.769C552.151 185.193 539.659 190.453 525.413 190.453C502.838 190.453 486.401 175.549 483.551 152.756H577.794C579.547 113.744 561.137 88.1011 523.878 88.1011ZM483.551 139.167C485.962 116.812 501.742 102.347 523.878 102.347C546.453 102.347 561.356 116.812 562.452 139.167H483.551Z" fill="white"></path><path d="M687.793 117.031L697.217 105.196C686.697 94.457 671.355 88.1011 652.726 88.1011C619.412 88.1011 595.523 112.21 595.523 146.4C595.523 180.809 619.193 204.699 652.726 204.699C672.67 204.699 688.669 197.247 698.97 184.754L689.108 174.673C680.998 184.316 668.506 189.576 653.383 189.576C629.494 189.576 612.399 172.043 612.399 146.4C612.399 120.976 629.494 103.443 653.383 103.443C667.41 103.443 679.026 108.484 687.793 117.031Z" fill="white"></path><path d="M747.088 114.401V88.7586H729.993V204.041H747.088V142.674C749.06 119.442 764.183 104.32 788.511 104.758V88.1011C769.005 88.3203 754.759 97.5253 747.088 114.401Z" fill="white"></path><path d="M857.126 88.1011C823.593 88.3203 799.923 111.99 799.923 146.4C799.923 180.809 823.374 204.699 857.345 204.699C876.632 204.699 892.851 197.685 903.809 185.631L894.385 175.769C885.399 185.193 872.906 190.453 858.66 190.453C836.086 190.453 819.648 175.549 816.799 152.756H911.042C912.795 113.744 894.385 88.1011 857.126 88.1011ZM816.799 139.167C819.21 116.812 834.99 102.347 857.126 102.347C879.7 102.347 894.604 116.812 895.7 139.167H816.799Z" fill="white"></path><path d="M995.178 183.001C988.822 186.727 982.686 188.7 976.768 188.919C966.906 188.919 961.426 183.22 961.426 169.193V105.635H998.028V92.2653H961.426V62.02H944.55V92.2653H927.894V105.635H944.55V172.043C944.55 194.836 957.043 204.918 973.919 204.699C983.124 204.699 991.891 201.63 1000 196.151L995.178 183.001Z" fill="white"></path><path d="M241.422 41.5659C214.698 14.8136 179.198 0.0927734 141.433 0.0927734C63.4411 0.0927734 0 63.5905 0 141.639C0 219.688 63.4411 283.186 141.433 283.186C179.198 283.186 214.726 268.465 241.422 241.713C268.146 214.96 282.838 179.432 282.838 141.639C282.838 103.846 268.146 68.2898 241.422 41.5659ZM141.433 273.391C68.8482 273.391 9.79502 214.281 9.79502 141.639C9.79502 68.9976 68.8482 9.88779 141.433 9.88779C214.018 9.88779 273.071 68.9976 273.071 141.639C273.071 214.281 214.018 273.391 141.433 273.391Z" fill="white"></path><path d="M187.862 144.98C178.803 136.884 166.941 131.477 155.447 126.239L155.363 126.211C135.093 116.954 117.57 108.942 118.815 90.0034C119.353 82.7845 124.59 78.4249 128.893 76.0752C133.734 73.4142 140.16 71.8289 146.105 71.8289C146.813 71.8289 147.521 71.8572 148.2 71.8855C165.497 73.0461 179.142 80.3783 192.476 95.6087L193.269 96.5429L194.203 95.7502L199.412 91.2207L200.346 90.3997L199.525 89.4655C184.663 72.4233 168.526 63.8456 148.795 62.5151C147.945 62.4302 147.04 62.4019 146.049 62.4019C145.454 62.4019 144.803 62.4019 144.124 62.4302H143.274C130.337 62.4302 116.154 66.6766 105.368 73.8105C92.4876 82.3316 85.2687 94.0516 85.0706 106.819C84.561 137.874 109.954 148.321 132.347 157.578L132.404 157.606L132.63 157.691C152.447 165.901 169.545 172.978 169.177 191.945C169.008 204.458 151.116 211.365 138.83 211.365H138.32H137.103V211.394C118.787 210.856 102.424 202.957 88.4677 187.982L87.6184 187.076L86.7125 187.897L81.6452 192.596L80.7393 193.446L81.5885 194.351C97.4417 211.422 117.003 220.594 138.179 220.849H139.141C152.815 220.849 167.677 217.169 178.888 210.969C192.929 203.297 201.11 192.115 201.96 179.489C202.922 165.618 198.308 154.322 187.862 144.98ZM122.127 117.973C130.196 124.88 141.123 129.835 151.682 134.619L151.88 134.704C163.063 139.856 173.65 144.725 181.322 151.491C189.815 158.965 193.41 167.627 192.646 178.753C191.938 189.765 183.757 197.126 176.311 201.57C177.755 198.626 178.548 195.427 178.633 192.03C178.803 180.593 174.415 171.449 165.186 164.032C157.118 157.549 146.417 153.161 136.056 148.887C114.512 140.026 94.1579 131.646 94.5259 106.904C94.6391 97.3921 100.358 88.3898 110.634 81.5672C110.974 81.3408 111.313 81.1143 111.681 80.8878C110.464 83.5489 109.785 86.3232 109.615 89.2391C108.794 100.704 112.899 110.103 122.127 117.973Z" fill="white"></path></svg>