<svg width="477" height="206" viewBox="0 0 477 206" fill="none" xmlns="http://www.w3.org/2000/svg">
<g clip-path="url(#clip0_4_947)">
<path d="M68.91 148.4V134H14.3C10.5074 134 6.87014 135.507 4.18837 138.188C1.5066 140.87 0 144.507 0 148.3L0 162.9C0 166.693 1.5066 170.33 4.18837 173.012C6.87014 175.693 10.5074 177.2 14.3 177.2H57.6V191.6H1V206H57.7C59.5779 206 61.4374 205.63 63.1724 204.911C64.9073 204.193 66.4837 203.14 67.8116 201.812C69.1395 200.484 70.1928 198.907 70.9115 197.172C71.6301 195.437 72 193.578 72 191.7V177.1C72 173.307 70.4934 169.67 67.8116 166.988C65.1299 164.307 61.4926 162.8 57.7 162.8H14.4V148.4H68.91Z" fill="white"/>
<path d="M84.25 148.3V191.7C84.2487 193.577 84.6173 195.437 85.3349 197.172C86.0524 198.907 87.1048 200.483 88.4319 201.811C89.759 203.139 91.3348 204.193 93.0691 204.911C94.8035 205.63 96.6626 206 98.54 206H142C143.878 206 145.737 205.63 147.472 204.911C149.207 204.193 150.784 203.14 152.112 201.812C153.44 200.484 154.493 198.907 155.211 197.172C155.93 195.437 156.3 193.578 156.3 191.7V148.3C156.3 146.422 155.93 144.563 155.211 142.828C154.493 141.093 153.44 139.516 152.112 138.188C150.784 136.86 149.207 135.807 147.472 135.089C145.737 134.37 143.878 134 142 134H98.54C96.6626 134 94.8035 134.37 93.0691 135.089C91.3348 135.807 89.759 136.861 88.4319 138.189C87.1048 139.517 86.0524 141.093 85.3349 142.828C84.6173 144.563 84.2487 146.423 84.25 148.3ZM141.85 191.6H98.65V148.4H141.85V191.6Z" fill="white"/>
<path d="M237.42 148.3V206H251.82V182.34H294V206H308.4V148.3C308.401 146.422 308.032 144.562 307.314 142.826C306.596 141.091 305.543 139.514 304.214 138.185C302.886 136.857 301.309 135.804 299.574 135.086C297.838 134.368 295.978 133.999 294.1 134H251.72C249.842 134 247.982 134.37 246.248 135.089C244.513 135.807 242.936 136.86 241.608 138.188C240.28 139.516 239.227 141.093 238.508 142.828C237.79 144.563 237.42 146.422 237.42 148.3ZM294 167.94H251.82V148.4H294V167.94Z" fill="white"/>
<path d="M406 148.3V206H420.4V182.34H462.6V206H477V148.3C477 144.507 475.493 140.87 472.812 138.188C470.13 135.507 466.493 134 462.7 134H420.33C418.45 133.996 416.587 134.363 414.848 135.08C413.11 135.797 411.53 136.85 410.199 138.178C408.868 139.506 407.812 141.084 407.091 142.821C406.371 144.558 406 146.42 406 148.3ZM462.57 167.94H420.43V148.4H462.6L462.57 167.94Z" fill="white"/>
<path d="M378.81 134V191.6H373.05L352.41 140C351.704 138.23 350.483 136.712 348.906 135.642C347.328 134.572 345.466 134 343.56 134H330.74C328.212 134 325.788 135.004 324.001 136.791C322.214 138.578 321.21 141.002 321.21 143.53V206H335.61V148.4H341.37L362 200C362.703 201.77 363.922 203.289 365.498 204.359C367.074 205.428 368.935 206 370.84 206H383.66C386.187 206 388.611 204.996 390.399 203.209C392.186 201.422 393.19 198.998 393.19 196.47V134H378.81Z" fill="white"/>
<path d="M183.46 191.6V134H169.06V191.7C169.06 193.578 169.43 195.437 170.149 197.172C170.867 198.907 171.921 200.484 173.248 201.812C174.576 203.14 176.153 204.193 177.888 204.911C179.623 205.63 181.482 206 183.36 206H226.66V191.6H183.46Z" fill="white"/>
<path d="M286.505 67.8049L270.658 84.8288C270.313 85.1986 269.897 85.4934 269.433 85.6949C268.97 85.8964 268.471 86.0003 267.966 86H192.84C192.481 86 192.131 85.8951 191.831 85.6982C191.531 85.5013 191.295 85.221 191.152 84.8917C191.01 84.5624 190.966 84.1985 191.027 83.8446C191.087 83.4908 191.25 83.1624 191.495 82.8999L207.354 65.876C207.698 65.5072 208.113 65.2129 208.575 65.0115C209.037 64.81 209.535 64.7056 210.038 64.7048H285.16C285.519 64.7048 285.869 64.8097 286.169 65.0066C286.469 65.2035 286.705 65.4838 286.848 65.8131C286.99 66.1424 287.034 66.5063 286.973 66.8601C286.913 67.214 286.75 67.5423 286.505 67.8049ZM270.658 33.5236C270.313 33.1538 269.897 32.859 269.433 32.6575C268.97 32.456 268.471 32.3521 267.966 32.3524H192.84C192.481 32.3524 192.131 32.4573 191.831 32.6542C191.531 32.8511 191.295 33.1314 191.152 33.4607C191.01 33.79 190.966 34.1539 191.027 34.5078C191.087 34.8616 191.25 35.19 191.495 35.4525L207.354 52.4764C207.698 52.8452 208.113 53.1394 208.575 53.3409C209.037 53.5424 209.535 53.6468 210.038 53.6476H285.16C285.519 53.6476 285.869 53.5427 286.169 53.3458C286.469 53.1489 286.705 52.8686 286.848 52.5393C286.99 52.21 287.034 51.8461 286.973 51.4922C286.913 51.1384 286.75 50.81 286.505 50.5475L270.658 33.5236ZM192.84 21.2952H267.966C268.471 21.2955 268.97 21.1917 269.433 20.9902C269.897 20.7887 270.313 20.4938 270.658 20.124L286.505 3.1001C286.75 2.83758 286.913 2.50922 286.973 2.15538C287.034 1.80153 286.99 1.4376 286.848 1.10831C286.705 0.779013 286.469 0.498699 286.169 0.301804C285.869 0.10491 285.519 1.21255e-05 285.16 0L210.038 0C209.535 0.000858433 209.037 0.105251 208.575 0.306715C208.113 0.508179 207.698 0.802426 207.354 1.17124L191.499 18.1951C191.254 18.4574 191.092 18.7854 191.031 19.1389C190.97 19.4923 191.013 19.8559 191.156 20.1851C191.298 20.5142 191.533 20.7945 191.832 20.9918C192.132 21.189 192.482 21.2944 192.84 21.2952Z" fill="url(#paint0_linear_4_947)"/>
</g>
<defs>
<linearGradient id="paint0_linear_4_947" x1="199.104" y1="88.0497" x2="278.03" y2="-0.77775" gradientUnits="userSpaceOnUse">
<stop offset="0.08" stop-color="#9945FF"/>
<stop offset="0.3" stop-color="#8752F3"/>
<stop offset="0.5" stop-color="#5497D5"/>
<stop offset="0.6" stop-color="#43B4CA"/>
<stop offset="0.72" stop-color="#28E0B9"/>
<stop offset="0.97" stop-color="#19FB9B"/>
</linearGradient>
<clipPath id="clip0_4_947">
<rect width="477" height="206" fill="white"/>
</clipPath>
</defs>
</svg>
