<svg fill="none" height="30" viewBox="0 0 124 30" width="124" xmlns="http://www.w3.org/2000/svg"><linearGradient id="a" gradientUnits="userSpaceOnUse" x1="2.47665" x2="127.568" y1="-1.09231" y2="16.8828"><stop offset="0" stop-color="#fff59e"/><stop offset=".635417" stop-color="#81efd9"/><stop offset="1" stop-color="#6b9be3"/></linearGradient><path clip-rule="evenodd" d="m8.51686 8.22623h5.39534v-5.21203h-5.29224c-5.25788-.14378-6.11701.7189-6.25938 6.542v1.4737c-.06382 5.2121 1.0015 6.6858 4.88477 6.578h.96222v4.1696h-5.73899v5.212h5.70463c4.12379 0 4.39879-.0718 5.42969-1.3299.6873-1.1503.8248-1.9051.9279-5.4277v-1.4738c0-5.0682-1.031-6.4341-4.91425-6.3622h-1.09969zm15.63624-.00008h2.7836v-5.21203h-11.7185v5.21203h2.7836v18.76335h6.1513zm10.2701 18.76335h-6.1514v-19.08686c.0687-4.24151.8591-4.88852 6.1906-4.88852h2.5087c5.3266 0 6.117.61106 6.1857 4.88852v19.08686h-6.1513v-5.0683h-2.5774v5.0683zm2.5774-10.3882v-6.3263c0-1.54562-.4124-2.22858-1.3059-2.22858s-1.2715.7189-1.2715 2.22858v6.3263zm23.2652-8.95031c-.1718-4.13368-.9278-4.74474-5.4984-4.63691h-9.3817v23.97532h6.1514v-9.3816h.7904c1.3058.0359 1.8213.647 1.787 2.1567v3.1991c0 1.6894.1374 2.9834.4811 4.0258h6.1513c-.2749-1.0064-.4811-2.4442-.4811-4.0258v-3.7024c.0688-2.6958-.7904-3.8461-3.3678-4.565 2.5774-.2157 3.4709-1.7253 3.3678-5.49957zm-6.117 2.69591c0 1.6894-.3093 2.0488-1.7526 2.0488h-.8591v-4.16959h.8591c1.3059 0 1.7526.53918 1.7526 2.12079zm22.9955 11.3228c.0687 4.7806-.6529 5.4277-6.0826 5.3198h-2.5431c-5.8421.0719-6.2544-.3594-6.1857-6.4701l-.0344-1.8691v-7.189c.0638-7.80011.5793-8.48307 6.2152-8.44712h8.6257v5.89498c-.7217-.35945-2.4399-.61106-4.4675-.68295h-2.165c-1.8901 0-2.0619.17972-2.0619 2.19269v8.5189c-.0344 2.5162.1374 2.8037 1.5464 2.8397h.9966v-5.7872c0-.9705-.1718-1.7972-.4811-2.6958h6.6325v8.3752zm2.0913 5.3198h6.1513v-5.0683h2.5774v5.0683h6.1514v-19.08686c-.0687-4.27746-.8591-4.88852-6.1857-4.88852h-2.5087c-5.3266 0-6.117.64701-6.1857 4.88852zm8.7287-16.7145v6.3263h-2.5774v-6.3263c0-1.50968.3781-2.22858 1.2716-2.22858s1.3058.68296 1.3058 2.22858zm20.1727-7.26088-5.121 18.76328h5.499l-.688 5.2121h-12.3024l5.1894-18.76335h-5.1206l.7216-5.21203zm7.835 5.21198h5.67v-5.21204h-5.739c-5.361-.07189-5.945.64702-6.082 7.69224v7.6563c-.035 3.5226.24 6.1107.721 6.9374.928 1.5456 1.272 1.6535 5.361 1.6894h5.739v-5.212h-5.67v-4.1697h5.67v-5.212h-5.67z" fill="url(#a)" fill-rule="evenodd"/></svg>