<svg width="493" height="272" viewBox="0 0 493 272" fill="none" xmlns="http://www.w3.org/2000/svg">
<path d="M492.334 210.583V201.496C492.334 201.135 492.042 200.843 491.682 200.843H439.902C439.542 200.843 439.25 201.135 439.25 201.496V210.583H460.295V269.373H471.29V210.583H492.334Z" fill="white"/>
<path d="M385.133 200.843C384.773 200.843 384.48 201.135 384.48 201.496V268.721C384.48 269.081 384.773 269.373 385.133 269.373H428.707C429.067 269.373 429.359 269.081 429.359 268.721V259.73H395.475V238.192H423.471V228.742H395.475V210.487H426.946V201.496C426.946 201.135 426.654 200.843 426.293 200.843H385.133Z" fill="white"/>
<path d="M359.865 268.974L360.102 269.373H368.549C368.909 269.373 369.201 269.081 369.201 268.721V201.496C369.201 201.135 368.909 200.843 368.549 200.843H358.399V248.304C356.637 245.499 354.591 242.41 352.262 239.04C349.294 234.654 346.102 230.204 342.686 225.692C339.333 221.115 335.916 216.698 332.434 212.442C329.014 208.118 325.782 204.337 322.739 201.1L322.498 200.843H314.549C314.189 200.843 313.896 201.135 313.896 201.496V268.721C313.896 269.081 314.189 269.373 314.549 269.373H324.698V218.53C326.086 220.169 327.563 221.985 329.13 223.98C331.247 226.674 333.43 229.562 335.677 232.644L335.679 232.648L335.682 232.651C337.928 235.667 340.174 238.812 342.421 242.086L342.424 242.09L342.427 242.095C344.739 245.37 346.955 248.613 349.074 251.824L349.076 251.827L349.078 251.83C351.195 254.974 353.151 258.02 354.946 260.969L354.95 260.975L354.953 260.98C356.817 263.936 358.454 266.601 359.865 268.974Z" fill="white"/>
<path d="M300.616 202.208L300.865 201.935C301.247 201.516 300.95 200.843 300.383 200.843H288.346L288.102 201.126C286.504 202.98 284.518 205.158 282.142 207.662L282.142 207.662C279.828 210.105 277.353 212.676 274.717 215.376C272.082 218.076 269.415 220.775 266.715 223.475C264.556 225.583 262.541 227.526 260.671 229.303V200.843H250.328C249.968 200.843 249.676 201.135 249.676 201.496V268.721C249.676 269.081 249.968 269.373 250.328 269.373H260.671V238.284C262.941 239.77 265.261 241.51 267.632 243.503L267.636 243.506L267.639 243.509C270.511 245.871 273.321 248.457 276.069 251.269L276.076 251.275L276.082 251.282C278.892 254.027 281.541 256.933 284.032 259.998L284.034 260.001L284.037 260.004C286.527 263.005 288.727 266.003 290.638 268.996L290.879 269.373H302.612C303.114 269.373 303.428 268.831 303.178 268.396L303.038 268.151C301.277 265.087 299.067 261.87 296.41 258.5C293.821 255.135 291.039 251.836 288.064 248.602C285.089 245.368 282.048 242.327 278.941 239.479C276.127 236.899 273.438 234.684 270.875 232.837C273.056 230.709 275.366 228.425 277.808 225.983C280.513 223.278 283.219 220.54 285.924 217.771C288.693 214.937 291.335 212.199 293.847 209.557L293.851 209.554L293.854 209.55C296.365 206.846 298.619 204.399 300.616 202.208Z" fill="white"/>
<path fill-rule="evenodd" clip-rule="evenodd" d="M187.263 200.33C186.903 200.33 186.611 200.622 186.611 200.982V268.762C186.611 269.122 186.903 269.414 187.264 269.414H196.58V244.494H210.19C211.721 246.327 213.215 248.245 214.671 250.248L214.676 250.256L214.682 250.263C217.064 253.387 219.265 256.645 221.286 260.038L221.288 260.042L221.29 260.046C223.12 263.049 224.717 266.014 226.082 268.943L226.302 269.414H237.326C237.799 269.414 238.115 268.928 237.918 268.498C236.65 265.719 235.276 262.999 233.75 260.348C231.676 256.644 229.401 252.977 226.926 249.347C225.511 247.272 224.066 245.256 222.591 243.3C226.703 242.043 229.957 239.769 232.311 236.469L232.313 236.467C235.137 232.473 236.538 227.776 236.538 222.411C236.538 218.725 235.896 215.352 234.6 212.304C233.297 209.212 231.339 206.647 228.729 204.624C226.136 202.59 222.943 201.296 219.182 200.715C218.305 200.554 217.399 200.457 216.465 200.424C215.553 200.361 214.757 200.329 214.081 200.329C211.222 200.329 208.364 200.329 205.505 200.329L205.505 200.329C199.424 200.328 193.344 200.328 187.263 200.33ZM226.381 222.411C226.381 224.192 226.085 225.944 225.49 227.671C224.907 229.33 223.977 230.784 222.692 232.04C221.474 233.229 219.868 234.073 217.833 234.545C217.189 234.692 216.494 234.796 215.749 234.855L215.747 234.855L215.746 234.855C215.013 234.916 214.365 234.946 213.8 234.946H196.58V209.877H213.8C214.365 209.877 215.013 209.907 215.746 209.968L215.764 209.969L215.781 209.97C216.506 209.999 217.179 210.1 217.801 210.27L217.821 210.275L217.842 210.28C219.869 210.72 221.47 211.561 222.685 212.776L222.688 212.78L222.692 212.783C223.975 214.037 224.906 215.506 225.489 217.197L225.49 217.199L225.49 217.201C226.085 218.895 226.381 220.63 226.381 222.411Z" fill="white"/>
<path fill-rule="evenodd" clip-rule="evenodd" d="M162.15 260.326L162.151 260.328L162.152 260.331C163.12 263.105 164.152 265.944 165.248 268.846L165.447 269.373H176.477C176.929 269.373 177.244 268.923 177.09 268.498C174.68 261.879 172.248 255.268 169.767 248.675C167.513 242.621 165.291 236.888 163.1 231.476C160.974 226.064 158.847 220.908 156.72 216.009C154.586 211.029 152.34 206.099 150.001 201.213C149.893 200.987 149.664 200.843 149.413 200.843H140.616C140.365 200.843 140.136 200.987 140.028 201.213C137.689 206.1 135.443 211.03 133.309 216.009C131.183 220.906 129.024 226.061 126.834 231.472L126.832 231.476L126.831 231.48C124.705 236.89 122.516 242.622 120.262 248.675C117.781 255.268 115.349 261.879 112.94 268.498C112.785 268.923 113.1 269.373 113.553 269.373H124.111L124.111 269.373H124.318L124.559 269.113C127.106 266.378 129.953 263.695 133.101 261.063L133.104 261.06L133.107 261.057C136.267 258.359 139.562 255.857 142.991 253.55L142.999 253.545L143.006 253.54C146.385 251.153 149.784 249.011 153.205 247.114L153.209 247.112L153.213 247.109C154.445 246.408 155.658 245.755 156.853 245.149L159.16 251.742L159.162 251.747L159.162 251.747C160.19 254.639 161.186 257.499 162.15 260.326ZM150.285 227.819L150.287 227.824L150.29 227.83C151.219 230.181 152.148 232.573 153.077 235.003C153.007 235.034 152.936 235.065 152.864 235.098C149.595 236.587 146.081 238.512 142.324 240.869C138.727 243.125 135.158 245.576 131.619 248.222L133.117 243.941C135.1 238.377 137.083 233.005 139.066 227.824C140.889 223.152 142.788 218.658 144.762 214.342C146.679 218.656 148.52 223.148 150.285 227.819Z" fill="white"/>
<path d="M115.631 210.583V201.496C115.631 201.135 115.339 200.843 114.979 200.843H63.1993C62.839 200.843 62.5469 201.135 62.5469 201.496V210.583H83.5916V268.721C83.5916 269.081 83.8836 269.373 84.244 269.373H93.9341C94.2944 269.373 94.5865 269.081 94.5865 268.721V210.583H115.631Z" fill="white"/>
<path d="M15.0359 268.54L15.0337 268.539C11.0455 266.839 7.7285 264.412 5.09856 261.256L5.09478 261.251L5.09272 261.249C2.48916 258.052 0.798587 254.284 0.0131577 249.964C-0.026127 249.748 0.0233931 249.526 0.150512 249.346C0.277631 249.167 0.471603 249.047 0.688534 249.013L9.45898 247.631C9.8741 247.565 10.271 247.826 10.3757 248.233C11.4415 252.374 13.6353 255.589 16.9618 257.919C20.3372 260.229 24.318 261.396 28.9381 261.396C31.935 261.396 34.6132 260.933 36.9839 260.022C39.3826 259.08 41.244 257.759 42.6032 256.075C43.9399 254.418 44.6149 252.457 44.6149 250.152C44.6149 248.721 44.3614 247.55 43.8907 246.608C43.8864 246.6 43.8823 246.591 43.8784 246.583C43.4199 245.58 42.7798 244.742 41.9552 244.06C41.9473 244.053 41.9396 244.046 41.932 244.04C41.1041 243.3 40.1538 242.676 39.0763 242.167C37.974 241.646 36.8248 241.217 35.6283 240.88L35.6174 240.877L18.1221 235.68C16.1746 235.096 14.2915 234.366 12.473 233.489L12.4681 233.486L12.4625 233.484C10.6161 232.56 8.96227 231.42 7.50471 230.062L7.50005 230.058L7.49757 230.055C6.01959 228.644 4.84734 226.967 3.97992 225.032L3.97782 225.028C3.09636 223.027 2.66927 220.702 2.66927 218.073C2.66927 213.859 3.75858 210.22 5.97307 207.2L5.97399 207.199C8.19835 204.178 11.1968 201.882 14.9417 200.305C18.6809 198.731 22.8763 197.969 27.5139 198.001C32.2147 198.033 36.4427 198.877 40.1826 200.549C43.9509 202.188 47.0768 204.555 49.5455 207.648C52.0514 210.748 53.7227 214.447 54.5717 218.725C54.6145 218.94 54.5686 219.164 54.4444 219.345C54.3203 219.526 54.1284 219.649 53.9121 219.687L44.9033 221.26C44.6897 221.297 44.47 221.248 44.2929 221.123C44.1157 220.998 43.9956 220.807 43.9592 220.594C43.5042 217.924 42.494 215.66 40.9406 213.778L40.9317 213.767C39.3956 211.84 37.4688 210.363 35.1389 209.334L35.1308 209.33C32.7961 208.269 30.2241 207.718 27.404 207.687L27.4036 207.687C24.7001 207.657 22.284 208.087 20.1424 208.962C17.9946 209.839 16.3184 211.049 15.0822 212.58L15.0773 212.586C13.8648 214.058 13.2614 215.749 13.2614 217.692C13.2614 219.621 13.811 221.109 14.852 222.234C15.9756 223.416 17.3568 224.37 19.0081 225.092C20.7588 225.811 22.4586 226.403 24.1077 226.869L24.1115 226.871L37.1674 230.635C38.6895 231.056 40.4276 231.636 42.3793 232.372C44.4223 233.13 46.3921 234.198 48.2884 235.571C50.2402 236.951 51.843 238.795 53.1024 241.081C54.3962 243.397 55.0163 246.277 55.0163 249.676C55.0163 253.091 54.3261 256.161 52.9246 258.866C51.5638 261.553 49.654 263.81 47.2038 265.631L47.1981 265.635C44.7618 267.413 41.9413 268.755 38.7468 269.668C35.5517 270.613 32.1377 271.083 28.5091 271.083C23.554 271.083 19.0586 270.24 15.0359 268.54Z" fill="white"/>
<path d="M164 78.9988C164 121.525 198.473 155.998 240.999 155.998C283.525 155.998 318 121.524 318 78.9988C318 36.4732 283.525 2 240.999 2C198.473 2 164 36.4731 164 78.9988Z" fill="#0C0C4F" stroke="url(#paint0_linear_1_1244)" stroke-width="4"/>
<path fill-rule="evenodd" clip-rule="evenodd" d="M206.154 60.3876L208.104 54.3628C208.501 53.1374 209.468 52.1839 210.698 51.8079L216.752 49.9461C217.59 49.6901 217.597 48.5078 216.766 48.2383L210.738 46.2881C209.515 45.8918 208.562 44.9246 208.184 43.6947L206.324 37.6405C206.068 36.8047 204.886 36.7956 204.616 37.6291L202.666 43.654C202.27 44.877 201.303 45.8306 200.073 46.2089L194.018 48.0684C193.18 48.3266 193.171 49.5067 194.005 49.7762L200.032 51.7263C201.255 52.1227 202.209 53.0921 202.587 54.322L204.446 60.374C204.702 61.212 205.885 61.2211 206.154 60.3876Z" fill="#FAFAFA"/>
<path fill-rule="evenodd" clip-rule="evenodd" d="M301.848 56.881C299.352 54.09 295.457 52.5186 291.67 51.8742C287.853 51.2553 283.85 51.3127 280.082 51.9822C272.457 53.272 265.53 56.4292 259.488 60.3241C256.351 62.2356 253.675 64.4474 250.903 66.7C249.567 67.8392 248.35 69.0524 247.082 70.2482L243.616 73.696C239.851 77.6317 236.14 81.2165 232.549 84.1878C228.944 87.1454 225.573 89.3917 222.251 90.9604C218.931 92.5372 215.379 93.4645 210.75 93.6129C206.16 93.7748 200.731 92.9465 194.923 91.5794C189.084 90.2183 182.952 88.2782 176.1 86.6088C178.491 93.2414 182.091 99.1027 186.714 104.461C191.39 109.726 197.23 114.524 204.731 117.68C212.125 120.906 221.416 122.064 230.103 120.317C238.813 118.64 246.457 114.61 252.636 109.948C258.83 105.239 263.842 99.8748 268.067 94.298C269.233 92.7572 269.85 91.8949 270.694 90.6906L273.027 87.2351C274.648 85.0977 276.124 82.6641 277.728 80.5464C280.874 76.1112 283.976 71.6811 287.58 67.5997C289.394 65.5296 291.307 63.5495 293.565 61.6466C294.691 60.7178 295.908 59.8088 297.256 58.99C298.624 58.1068 300.069 57.4155 301.848 56.881Z" fill="url(#paint1_linear_1_1244)"/>
<path fill-rule="evenodd" clip-rule="evenodd" d="M301.848 56.8808C299.167 50.1148 294.182 44.4194 287.491 40.2167C280.841 36.0601 271.605 33.9389 262.452 35.7471C257.931 36.6216 253.55 38.3052 249.706 40.5472C245.879 42.7803 242.45 45.4685 239.481 48.3524C237.999 49.7992 236.654 51.3084 235.318 52.8262L231.854 57.2423L226.504 64.3512C219.684 73.4976 212.339 84.2166 200.286 87.3927C188.454 90.5108 183.322 87.7493 176.1 86.6085C177.421 90.0176 179.057 93.3284 181.274 96.2409C183.45 99.2124 186.02 102.003 189.216 104.396C190.831 105.545 192.536 106.679 194.43 107.641C196.315 108.57 198.347 109.388 200.517 110.003C204.833 111.186 209.692 111.601 214.397 110.964C219.104 110.336 223.603 108.845 227.536 106.864C231.497 104.901 234.948 102.511 238.03 99.9891C244.155 94.9021 248.92 89.2815 252.944 83.6C254.969 80.7594 256.806 77.8652 258.506 74.9702L260.506 71.5236C261.118 70.5161 261.736 69.5024 262.364 68.5584C264.899 64.7654 267.378 61.7241 270.389 59.4413C273.358 57.0995 277.493 55.3693 283.018 54.9674C288.52 54.5606 294.872 55.312 301.848 56.8808Z" fill="#FAFAFA"/>
<path fill-rule="evenodd" clip-rule="evenodd" d="M272.081 113.097C272.081 118.067 276.112 122.097 281.081 122.097C286.051 122.097 290.076 118.067 290.076 113.097C290.076 108.128 286.051 104.097 281.081 104.097C276.112 104.097 272.081 108.128 272.081 113.097Z" fill="url(#paint2_linear_1_1244)"/>
<defs>
<linearGradient id="paint0_linear_1_1244" x1="311.5" y1="40.5" x2="168.108" y2="67.1069" gradientUnits="userSpaceOnUse">
<stop stop-color="#EC796B"/>
<stop offset="1" stop-color="#E175B1"/>
</linearGradient>
<linearGradient id="paint1_linear_1_1244" x1="301.176" y1="54.507" x2="190.5" y2="116.002" gradientUnits="userSpaceOnUse">
<stop stop-color="#EC796B"/>
<stop offset="1" stop-color="#E175B1"/>
</linearGradient>
<linearGradient id="paint2_linear_1_1244" x1="290.07" y1="106.784" x2="272.069" y2="108.688" gradientUnits="userSpaceOnUse">
<stop stop-color="#EC796B"/>
<stop offset="1" stop-color="#E175B1"/>
</linearGradient>
</defs>
</svg>
